Coordinates
version=1
nRows=12
nColumns=24
inDegrees=yes

Units are S.I. units (second, meters, Newtons, ...)
Angles are in degrees.

endheader
time	pelvis_tilt	pelvis_list	pelvis_rotation	pelvis_tx	pelvis_ty	pelvis_tz	hip_flexion_r	hip_adduction_r	hip_rotation_r	knee_angle_r	ankle_angle_r	subtalar_angle_r	mtp_angle_r	hip_flexion_l	hip_adduction_l	hip_rotation_l	knee_angle_l	ankle_angle_l	subtalar_angle_l	mtp_angle_l	lumbar_extension	lumbar_bending	lumbar_rotation
      5.03000000	     54.62098318	     -3.64624689	    -15.19399948	      0.43059858	      1.03267176	     -0.33865955	     26.74192843	     -4.52555030	     23.97012725	    -52.19889248	      6.87470312	     45.84122972	      0.00000000	      7.39443028	    -19.59153223	    -12.18331116	    -62.71364851	     24.33630959	     27.03353000	      0.00000000	      0.00000000	      0.00000000	      0.00000000
      5.04000000	     54.61494749	     -3.64259358	    -15.19203871	      0.43060065	      1.03267364	     -0.33865900	     26.75008402	     -4.53325482	     23.97667482	    -52.22530499	      6.87435120	     45.83649368	      0.00000000	      7.40232287	    -19.58922427	    -12.18594878	    -62.71604795	     24.34266600	     27.03198521	      0.00000000	      0.00000000	      0.00000000	      0.00000000
      5.05000000	     54.61209934	     -3.63976928	    -15.19071679	      0.43060765	      1.03267643	     -0.33866475	     26.75594202	     -4.54081874	     23.98341143	    -52.25302665	      6.87377723	     45.83259579	      0.00000000	      7.40656222	    -19.58689593	    -12.19040308	    -62.71890167	     24.34961530	     27.03039604	      0.00000000	      0.00000000	      0.00000000	      0.00000000
      5.06000000	     54.61270530	     -3.63805399	    -15.19076759	      0.43061492	      1.03267339	     -0.33867062	     26.75919344	     -4.54709763	     23.99169257	    -52.28171510	      6.87336910	     45.82980698	      0.00000000	      7.40643397	    -19.58515424	    -12.19703556	    -62.72273019	     24.35606251	     27.02911141	      0.00000000	      0.00000000	      0.00000000	      0.00000000
      5.07000000	     54.61596777	     -3.63703761	    -15.19338585	      0.43062129	      1.03266153	     -0.33866908	     26.76074296	     -4.55124772	     24.00254269	    -52.31109029	      6.87333942	     45.82840817	      0.00000000	      7.40251412	    -19.58442964	    -12.20566147	    -62.72777239	     24.36099072	     27.02839238	      0.00000000	      0.00000000	      0.00000000	      0.00000000
      5.08000000	     54.62046400	     -3.63593862	    -15.19986664	      0.43062794	      1.03264259	     -0.33865753	     26.76269028	     -4.55315338	     24.01612831	    -52.34080933	      6.87372496	     45.82861907	      0.00000000	      7.39683970	    -19.58455589	    -12.21550341	    -62.73380911	     24.36372206	     27.02838488	      0.00000000	      0.00000000	      0.00000000	      0.00000000
      5.09000000	     54.62442884	     -3.63394951	    -15.21053363	      0.43063230	      1.03261192	     -0.33864265	     26.76781370	     -4.55363283	     24.03154342	    -52.37041612	      6.87451791	     45.83052268	      0.00000000	      7.39259260	    -19.58445422	    -12.22537322	    -62.74009453	     24.36413620	     27.02911004	      0.00000000	      0.00000000	      0.00000000	      0.00000000
      5.10000000	     54.62559163	     -3.63018702	    -15.22376289	      0.43062447	      1.03256226	     -0.33863678	     26.77866781	     -4.55442630	     24.04703468	    -52.39960167	      6.87584023	     45.83401946	      0.00000000	      7.39319129	    -19.58228546	    -12.23393081	    -62.74559131	     24.36276213	     27.03046890	      0.00000000	      0.00000000	      0.00000000	      0.00000000
      5.11000000	     54.62131010	     -3.62325708	    -15.23614040	      0.43060034	      1.03250800	     -0.33864654	     26.79674634	     -4.55789861	     24.06060266	    -52.42862775	      6.87806291	     45.83882636	      0.00000000	      7.40116371	    -19.57624689	    -12.23992033	    -62.74952823	     24.36067923	     27.03226441	      0.00000000	      0.00000000	      0.00000000	      0.00000000
      5.12000000	     54.60979100	     -3.61128898	    -15.24406348	      0.43058725	      1.03247963	     -0.33866395	     26.82210343	     -4.56622634	     24.07070518	    -52.45846182	      6.88180323	     45.84451311	      0.00000000	      7.41733752	    -19.56547735	    -12.24250170	    -62.75198271	     24.35925478	     27.03424510	      0.00000000	      0.00000000	      0.00000000	      0.00000000
      5.13000000	     54.59186058	     -3.59316381	    -15.24597875	      0.43062096	      1.03247918	     -0.33867437	     26.85343058	     -4.58019143	     24.07672976	    -52.49033283	      6.88778070	     45.85055855	      0.00000000	      7.44060299	    -19.55048943	    -12.24166461	    -62.75407141	     24.35980416	     27.03616524	      0.00000000	      0.00000000	      0.00000000	      0.00000000
      5.14000000	     54.57153199	     -3.57008963	    -15.24344298	      0.43069329	      1.03247060	     -0.33867355	     26.88824613	     -4.59835542	     24.07902992	    -52.52493336	      6.89656649	     45.85640996	      0.00000000	      7.46809371	    -19.53306908	    -12.23838741	    -62.75754625	     24.36324849	     27.03784740	      0.00000000	      0.00000000	      0.00000000	      0.00000000
